:FULLY-SPECIFIED
:FORCE-ALL-JOINTS-BE-3DOF
:DEGREES
1223
root -0.842055 14.8461 -16.6087 366.301 23.1816 362.701
lfemur 3.49196 1.01737 -8.70388
ltibia 52.299 0 0
lfoot -7.55392 15.1848 0
ltoes -27.5494 0 0
rfemur -52.8065 -13.7607 16.3158
rtibia 70.7821 0 0
rfoot -15.7081 -10.3777 0
rtoes -7.12837 0 0
lowerback 13.8108 2.27625 -5.88664
upperback -2.46005 1.90469 -0.443224
thorax -10.6905 1.23437 2.39621
lowerneck -0.609801 -10.2982 -11.3033
upperneck 2.09885 -14.0002 11.1778
head 2.37512 -6.95642 4.60948
lclavicle -1.92488e-15 -1.5403e-14 0
lhumerus -62.8318 -26.0657 111.336
lradius 95.1097 0 0
lwrist 36.2922 0 0
lhand -21.4345 31.2226 0
lfingers 7.12502 0 0
lthumb 4.95107 60.9761 0
rclavicle -1.92488e-15 -1.5403e-14 0
rhumerus 63.9149 -1.21254 -27.8699
rradius 92.369 0 0
rwrist -2.82142 0 0
rhand -32.9862 -33.6694 0
rfingers 7.12502 0 0
rthumb -6.19929 -63.5014 0
1224
root -0.856038 14.8573 -16.487 366.726 22.2565 362.374
lfemur 2.77902 0.718781 -8.7393
ltibia 53.7582 0 0
lfoot -6.14538 13.3619 0
ltoes -27.6945 0 0
rfemur -52.6918 -13.1029 17.2106
rtibia 71.0728 0 0
rfoot -16.2497 -11.6907 0
rtoes -6.91232 0 0
lowerback 13.6219 2.17514 -5.44844
upperback -2.5834 1.86227 -0.382778
thorax -10.698 1.19172 2.22784
lowerneck -0.699717 -10.0419 -11.0913
upperneck 1.94559 -13.6322 11.0459
head 2.27921 -6.77192 4.56475
lclavicle -4.20973e-15 -1.55957e-14 0
lhumerus -61.8648 -27.0565 112.187
lradius 93.9892 0 0
lwrist 32.9313 0 0
lhand -22.2903 30.4935 0
lfingers 7.12502 0 0
lthumb 4.12494 60.2644 0
rclavicle -4.20973e-15 -1.55957e-14 0
rhumerus 64.0544 -0.372909 -27.7176
rradius 92.556 0 0
rwrist -4.16178 0 0
rhand -32.4922 -33.8125 0
rfingers 7.12502 0 0
rthumb -5.72236 -63.6579 0
1225
root -0.870021 14.8684 -16.3652 367.194 21.2589 362.02
lfemur 2.0139 0.39433 -8.7707
ltibia 55.318 0 0
lfoot -4.61019 11.386 0
ltoes -27.8645 0 0
rfemur -52.5749 -12.3988 18.1848
rtibia 71.401 0 0
rfoot -16.8523 -13.1173 0
rtoes -6.6856 0 0
lowerback 13.4205 2.06516 -4.97263
upperback -2.71839 1.81544 -0.316849
thorax -10.7093 1.14523 2.04536
lowerneck -0.795965 -9.76508 -10.8614
upperneck 1.77485 -13.2345 10.9035
head 2.17383 -6.57253 4.51655
lclavicle -6.72579e-15 -1.58351e-14 0
lhumerus -60.8222 -28.1329 113.105
lradius 92.7745 0 0
lwrist 29.3098 0 0
lhand -23.2204 29.7371 0
lfingers 7.12502 0 0
lthumb 3.22704 59.5271 0
rclavicle -6.72579e-15 -1.58351e-14 0
rhumerus 64.2035 0.536734 -27.5492
rradius 92.7584 0 0
rwrist -5.62024 0 0
rhand -31.9546 -33.9568 0
rfingers 7.12502 0 0
rthumb -5.20338 -63.8167 0
1226
root -0.884004 14.8796 -16.2435 367.707 20.186 361.639
lfemur 1.19462 0.0428899 -8.79768
ltibia 56.9818 0 0
lfoot -2.94264 9.25061 0
ltoes -28.0609 0 0
rfemur -52.4559 -11.6466 19.242
rtibia 71.7686 0 0
rfoot -17.5191 -14.6623 0
rtoes -6.448 0 0
lowerback 13.2062 1.94592 -4.45759
upperback -2.86555 1.76398 -0.24519
thorax -10.7247 1.09473 1.84818
lowerneck -0.898774 -9.4669 -10.6128
upperneck 1.58574 -12.8057 10.7502
head 2.05854 -6.35766 4.46474
lclavicle -9.48429e-15 -1.61244e-14 0
lhumerus -59.7009 -29.2989 114.092
lradius 91.4617 0 0
lwrist 25.4176 0 0
lhand -24.2281 28.9533 0
lfingers 7.12502 0 0
lthumb 2.25423 58.7643 0
rclavicle -9.48429e-15 -1.61244e-14 0
rhumerus 64.3627 1.51936 -27.3639
rradius 92.977 0 0
rwrist -7.20204 0 0
rhand -31.3716 -34.1017 0
rfingers 7.12502 0 0
rthumb -4.64051 -63.9776 0
1227
root -0.897987 14.8907 -16.1218 368.267 19.0348 361.23
lfemur 0.319218 -0.33667 -8.81982
ltibia 58.7532 0 0
lfoot -1.13704 6.94924 0
ltoes -28.2853 0 0
rfemur -52.3351 -10.8447 20.3858
rtibia 72.1779 0 0
rfoot -18.2534 -16.3308 0
rtoes -6.19933 0 0
lowerback 12.9786 1.81704 -3.90169
upperback -3.02542 1.70767 -0.167551
thorax -10.7444 1.04004 1.63569
lowerneck -1.00837 -9.14651 -10.3448
upperneck 1.37735 -12.3447 10.5856
head 1.93288 -6.12668 4.40917
lclavicle -1.24965e-14 -1.64665e-14 0
lhumerus -58.4979 -30.558 115.152
lradius 90.0466 0 0
lwrist 21.2441 0 0
lhand -25.3167 28.1424 0
lfingers 7.12502 0 0
lthumb 1.20335 57.9761 0
rclavicle -1.24965e-14 -1.64665e-14 0
rhumerus 64.5323 2.57795 -27.1609
rradius 93.2124 0 0
rwrist -8.91243 0 0
rhand -30.7411 -34.2472 0
rfingers 7.12502 0 0
rthumb -4.03186 -64.1402 0
1228
root -0.91197 14.9019 -16.0001 368.877 17.8024 360.79
lfemur -0.614265 -0.745481 -8.83671
ltibia 60.6358 0 0
lfoot 0.812313 4.47534 0
ltoes -28.539 0 0
rfemur -52.2125 -9.99146 21.6196
rtibia 72.6307 0 0
rfoot -19.0582 -18.1277 0
rtoes -5.93937 0 0
lowerback 12.7371 1.67813 -3.30328
upperback -3.19856 1.64629 -0.0836856
thorax -10.7688 0.981006 1.40728
lowerneck -1.12499 -8.80306 -10.0566
upperneck 1.14877 -11.8502 10.4093
head 1.7964 -5.87898 4.34971
lclavicle -1.57735e-14 -1.68646e-14 0
lhumerus -57.2102 -31.9141 116.287
lradius 88.5253 0 0
lwrist 16.7791 0 0
lhand -26.4894 27.3041 0
lfingers 7.12502 0 0
lthumb 0.0712743 57.1626 0
rclavicle -1.57735e-14 -1.68646e-14 0
rhumerus 64.7126 3.71548 -26.9394
rradius 93.4653 0 0
rwrist -10.7566 0 0
rhand -30.0613 -34.3927 0
rfingers 7.12502 0 0
rthumb -3.37558 -64.3044 0
1229
root -0.925953 14.913 -15.8784 369.537 16.4858 360.32
lfemur -1.6078 -1.18468 -8.84794
ltibia 62.633 0 0
lfoot 2.91111 1.82238 0
ltoes -28.8237 0 0
rfemur -52.0884 -9.08516 22.947
rtibia 73.1291 0 0
rfoot -19.9367 -20.0579 0
rtoes -5.66795 0 0
lowerback 12.4816 1.52878 -2.66075
upperback -3.38549 1.57963 0.00665529
thorax -10.798 0.917443 1.16236
lowerneck -1.24885 -8.43572 -9.74739
upperneck 0.899108 -11.321 10.2209
head 1.64864 -5.61395 4.28621
lclavicle -1.93267e-14 -1.73217e-14 0
lhumerus -55.8347 -33.3709 117.501
lradius 86.8937 0 0
lwrist 12.012 0 0
lhand -27.7495 26.4386 0
lfingers 7.12502 0 0
lthumb -1.14516 56.3238 0
rclavicle -1.93267e-14 -1.73217e-14 0
rhumerus 64.904 4.93492 -26.6986
rradius 93.7362 0 0
rwrist -12.7399 0 0
rhand -29.3302 -34.538 0
rfingers 7.12502 0 0
rthumb -2.6698 -64.4699 0
1230
root -0.939936 14.9242 -15.7567 370.251 15.0823 359.818
lfemur -2.66334 -1.65538 -8.85309
ltibia 64.7485 0 0
lfoot 5.16506 -1.01618 0
ltoes -29.1408 0 0
rfemur -51.9629 -8.12415 24.3715
rtibia 73.6753 0 0
rfoot -20.8921 -22.1265 0
rtoes -5.38485 0 0
lowerback 12.2114 1.36861 -1.97244
upperback -3.58677 1.50747 0.10372
thorax -10.8324 0.84918 0.900327
lowerneck -1.38018 -8.04364 -9.41647
upperneck 0.627451 -10.7559 10.0199
head 1.48915 -5.33097 4.21855
lclavicle -2.31673e-14 -1.78407e-14 0
lhumerus -54.3684 -34.9322 118.795
lradius 85.1478 0 0
lwrist 6.9327 0 0
lhand -29.1002 25.5458 0
lfingers 7.12502 0 0
lthumb -2.4491 55.4598 0
rclavicle -2.31673e-14 -1.78407e-14 0
rhumerus 65.1068 6.23924 -26.4376
rradius 94.026 0 0
rwrist -14.8674 0 0
rhand -28.5458 -34.6827 0
rfingers 7.12502 0 0
rthumb -1.91267 -64.6363 0
1231
root -0.953919 14.9353 -15.635 371.02 13.5888 359.283
lfemur -3.78286 -2.15874 -8.85175
ltibia 66.9857 0 0
lfoot 7.57986 -4.04685 0
ltoes -29.4918 0 0
rfemur -51.8362 -7.10674 25.8968
rtibia 74.2712 0 0
rfoot -21.9274 -24.3383 0
rtoes -5.08988 0 0
lowerback 11.9262 1.19723 -1.23674
upperback -3.80293 1.42959 0.207756
thorax -10.8723 0.776045 0.620577
lowerneck -1.51922 -7.62598 -9.06303
upperneck 0.332896 -10.1536 9.80585
head 1.31749 -5.02942 4.14657
lclavicle -2.73065e-14 -1.84249e-14 0
lhumerus -52.8082 -36.6017 120.172
lradius 83.2836 0 0
lwrist 1.53065 0 0
lhand -30.5449 24.6257 0
lfingers 7.12502 0 0
lthumb -3.84369 54.5707 0
rclavicle -2.73065e-14 -1.84249e-14 0
rhumerus 65.3214 7.63141 -26.1557
rradius 94.3351 0 0
rwrist -17.1445 0 0
rhand -27.7064 -34.8265 0
rfingers 7.12502 0 0
rthumb -1.1023 -64.8034 0
1232
root -0.947689 14.9414 -15.3826 371.069 13.1404 359.104
lfemur -4.58426 -1.96994 -9.04903
ltibia 67.0883 0 0
lfoot 7.88861 -4.22419 0
ltoes -28.9078 0 0
rfemur -51.1122 -6.91929 26.1472
rtibia 73.9811 0 0
rfoot -21.9191 -24.6283 0
rtoes -5.38289 0 0
lowerback 11.7998 1.19707 -1.08601
upperback -3.84405 1.45803 0.251843
thorax -10.8386 0.78312 0.582809
lowerneck -1.58604 -7.51178 -8.97824
upperneck 0.401225 -9.99761 9.74251
head 1.32579 -4.95011 4.12173
lclavicle -2.77652e-14 -1.81568e-14 0
lhumerus -51.3748 -36.7446 119.772
lradius 83.1583 0 0
lwrist 1.33585 0 0
lhand -30.6967 24.6842 0
lfingers 7.12502 0 0
lthumb -3.99018 50.554 0
rclavicle -2.77652e-14 -1.81568e-14 0
rhumerus 64.3444 8.22011 -26.8826
rradius 94.3157 0 0
rwrist -17.7564 0 0
rhand -27.3346 -34.7911 0
rfingers 7.12502 0 0
rthumb -0.74364 -64.7584 0
1233
root -0.94146 14.9474 -15.1302 371.111 12.7574 358.952
lfemur -5.27049 -1.80744 -9.21819
ltibia 67.1737 0 0
lfoot 8.15099 -4.37309 0
ltoes -28.4065 0 0
rfemur -50.4914 -6.75967 26.3605
rtibia 73.7318 0 0
rfoot -21.911 -24.8747 0
rtoes -5.63465 0 0
lowerback 11.6916 1.19711 -0.957477
upperback -3.8791 1.4825 0.289558
thorax -10.8096 0.789264 0.550709
lowerneck -1.6432 -7.41427 -8.90587
upperneck 0.460104 -9.86445 9.68841
head 1.33308 -4.88241 4.10049
lclavicle -2.81547e-14 -1.79265e-14 0
lhumerus -50.1468 -36.8654 119.427
lradius 83.0528 0 0
lwrist 1.17476 0 0
lhand -30.8253 24.7357 0
lfingers 7.12502 0 0
lthumb -4.11438 47.1095 0
rclavicle -2.81547e-14 -1.79265e-14 0
rhumerus 63.5061 8.72365 -27.5065
rradius 94.2987 0 0
rwrist -18.279 0 0
rhand -27.0165 -34.7604 0
rfingers 7.12502 0 0
rthumb -0.436798 -64.7195 0
1234
root -0.93523 14.9535 -14.8778 371.145 12.4345 358.823
lfemur -5.85259 -1.66784 -9.3622
ltibia 67.2409 0 0
lfoot 8.36934 -4.49312 0
ltoes -27.9788 0 0
rfemur -49.9628 -6.62616 26.5389
rtibia 73.5183 0 0
rfoot -21.9021 -25.0798 0
rtoes -5.85006 0 0
lowerback 11.6002 1.19753 -0.849584
upperback -3.90852 1.5035 0.321474
thorax -10.785 0.79466 0.523985
lowerneck -1.69157 -7.33213 -8.845
upperneck 0.510841 -9.75235 9.6428
head 1.33965 -4.8254 4.08257
lclavicle -2.84782e-14 -1.77297e-14 0
lhumerus -49.104 -36.9647 119.13
lradius 82.9671 0 0
lwrist 1.05022 0 0
lhand -30.9318 24.7825 0
lfingers 7.12502 0 0
lthumb -4.21713 44.1768 0
rclavicle -2.84782e-14 -1.77297e-14 0
rhumerus 62.7911 9.14963 -28.0388
rradius 94.2836 0 0
rwrist -18.7194 0 0
rhand -26.7472 -34.7337 0
rfingers 7.12502 0 0
rthumb -0.177082 -64.6858 0
1235
root -0.929 14.9595 -14.6254 371.171 12.1664 358.715
lfemur -6.34164 -1.5477 -9.48399
ltibia 67.2889 0 0
lfoot 8.54597 -4.58385 0
ltoes -27.6155 0 0
rfemur -49.5154 -6.51702 26.6848
rtibia 73.3356 0 0
rfoot -21.8915 -25.2458 0
rtoes -6.03401 0 0
lowerback 11.5239 1.19849 -0.76077
upperback -3.93272 1.52156 0.348166
thorax -10.764 0.79949 0.502351
lowerneck -1.73202 -7.26407 -8.79468
upperneck 0.55474 -9.65957 9.60495
head 1.34579 -4.7782 4.06765
lclavicle -2.87389e-14 -1.75619e-14 0
lhumerus -48.2259 -37.0429 118.873
lradius 82.9012 0 0
lwrist 0.965113 0 0
lhand -31.0169 24.8268 0
lfingers 7.12502 0 0
lthumb -4.29926 41.6955 0
rclavicle -2.87389e-14 -1.75619e-14 0
rhumerus 62.1842 9.50562 -28.4908
rradius 94.2696 0 0
rwrist -19.0846 0 0
rhand -26.522 -34.7101 0
rfingers 7.12502 0 0
rthumb 0.0401958 -64.6561 0
1236
root -0.922771 14.9656 -14.373 371.189 11.9478 358.627
lfemur -6.74871 -1.44363 -9.58654
ltibia 67.3166 0 0
lfoot 8.68321 -4.64486 0
ltoes -27.3074 0 0
rfemur -49.1384 -6.43054 26.8004
rtibia 73.1789 0 0
rfoot -21.878 -25.3747 0
rtoes -6.19138 0 0
lowerback 11.461 1.20016 -0.689477
upperback -3.95212 1.53718 0.370205
thorax -10.7463 0.803935 0.485516
lowerneck -1.76541 -7.20876 -8.75397
upperneck 0.593107 -9.58433 9.5741
head 1.35178 -4.73991 4.05542
lclavicle -2.894e-14 -1.74187e-14 0
lhumerus -47.4923 -37.1004 118.648
lradius 82.8552 0 0
lwrist 0.922296 0 0
lhand -31.0814 24.8709 0
lfingers 7.12502 0 0
lthumb -4.36158 39.6051 0
rclavicle -2.894e-14 -1.74187e-14 0
rhumerus 61.6701 9.79923 -28.8741
rradius 94.2561 0 0
rwrist -19.3817 0 0
rhand -26.3358 -34.6889 0
rfingers 7.12502 0 0
rthumb 0.219726 -64.6296 0
